<svg width="20" height="18" viewBox="0 0 20 18" fill="none" xmlns="http://www.w3.org/2000/svg">
<g clip-path="url(#clip0)">
<path d="M2.72033 13.7185L1.987 13.3369L10.1657 0.588135L10.899 0.969735L2.72033 13.7185Z" fill="#F3F3F3"/>
<path d="M1.81833 12.3179H18.177V13.0811H1.81833V12.3179Z" fill="#F3F3F3"/>
<path d="M10.3243 16.9991L2.14233 12.7475L2.56633 12.0875L10.7483 16.3391L10.3243 16.9991ZM17.4323 5.9171L9.24967 1.6661L9.67367 1.0061L17.8557 5.2577L17.4323 5.9171Z" fill="#F3F3F3"/>
<path d="M2.56832 5.91475L2.14432 5.25475L10.3337 1.00195L10.7577 1.66195L2.56832 5.91475Z" fill="#F3F3F3"/>
<path d="M17.2816 13.7183L9.10165 0.96827L9.83498 0.58667L18.015 13.3367L17.2816 13.7183ZM2.46698 4.74827H3.31498V13.2515H2.46698V4.74827ZM16.6856 4.74827H17.5336V13.2515H16.6856V4.74827Z" fill="#F3F3F3"/>
<path d="M10.1803 16.6756L9.81033 16.0984L16.927 12.4006L17.297 12.9778L10.1803 16.6756Z" fill="#F3F3F3"/>
<path d="M18.657 13.5007C18.4201 13.8689 18.0307 14.1376 17.5741 14.2479C17.1175 14.3582 16.6309 14.3012 16.221 14.0893C15.8119 13.8761 15.5133 13.5256 15.3907 13.1147C15.2682 12.7037 15.3315 12.2658 15.567 11.8969C15.8039 11.5287 16.1933 11.26 16.6499 11.1496C17.1065 11.0393 17.593 11.0964 18.003 11.3083C18.861 11.7541 19.1523 12.7333 18.6563 13.5007H18.657ZM4.42833 6.10508C4.19142 6.47329 3.80203 6.74198 3.34544 6.8523C2.88885 6.96263 2.40228 6.90559 1.99233 6.69368C1.58303 6.48046 1.28435 6.1299 1.16176 5.71882C1.03916 5.30774 1.10266 4.86969 1.33833 4.50068C1.57523 4.13247 1.96463 3.86377 2.42122 3.75345C2.87781 3.64312 3.36437 3.70017 3.77433 3.91208C4.18345 4.12529 4.482 4.47575 4.60458 4.88668C4.72716 5.29761 4.66378 5.73552 4.42833 6.10448V6.10508ZM1.34366 13.5007C1.1082 13.1317 1.04483 12.6938 1.16741 12.2829C1.28999 11.8719 1.58854 11.5215 1.99766 11.3083C2.40762 11.0964 2.89418 11.0393 3.35077 11.1496C3.80736 11.26 4.19676 11.5287 4.43366 11.8969C4.66912 12.2658 4.7325 12.7037 4.60991 13.1147C4.48733 13.5256 4.18878 13.8761 3.77966 14.0893C2.92166 14.5303 1.83299 14.2693 1.34366 13.5013V13.5007ZM15.5723 6.10568C15.3369 5.73672 15.2735 5.29881 15.3961 4.88788C15.5187 4.47695 15.8172 4.12649 16.2263 3.91328C16.6363 3.70137 17.1228 3.64432 17.5794 3.75465C18.036 3.86497 18.4254 4.13367 18.6623 4.50188C18.8978 4.87084 18.9612 5.30874 18.8386 5.71968C18.716 6.13061 18.4174 6.48106 18.0083 6.69428C17.5984 6.90619 17.1118 6.96323 16.6552 6.8529C16.1986 6.74258 15.8092 6.47389 15.5723 6.10568ZM10.0003 18.0007C9.64772 18.0007 9.30303 17.9066 9.00986 17.7302C8.71669 17.5539 8.4882 17.3033 8.35329 17.0101C8.21839 16.7169 8.18313 16.3943 8.25196 16.0831C8.3208 15.7718 8.49065 15.4859 8.74003 15.2616C8.98941 15.0372 9.30711 14.8845 9.65296 14.8226C9.9988 14.7608 10.3573 14.7927 10.683 14.9142C11.0087 15.0357 11.2871 15.2414 11.4829 15.5054C11.6787 15.7693 11.7831 16.0795 11.783 16.3969C11.7818 16.822 11.5935 17.2294 11.2595 17.5299C10.9254 17.8305 10.4727 17.9997 10.0003 18.0007ZM10.0003 3.20948C9.76613 3.20979 9.53416 3.16851 9.31772 3.08799C9.10127 3.00748 8.90461 2.88931 8.73901 2.74026C8.5734 2.59122 8.44211 2.41423 8.35264 2.21943C8.26318 2.02463 8.21731 1.81586 8.21766 1.60508C8.21766 1.17964 8.40544 0.771634 8.73969 0.470807C9.07395 0.169979 9.52729 0.000976563 9.99999 0.000976562C10.4727 0.000976563 10.926 0.169979 11.2603 0.470807C11.5945 0.771634 11.7823 1.17964 11.7823 1.60508C11.7826 1.81576 11.7367 2.02442 11.6472 2.2191C11.5578 2.41379 11.4265 2.59069 11.261 2.73966C11.0955 2.88864 10.8989 3.00676 10.6826 3.08728C10.4663 3.16779 10.2344 3.20911 10.0003 3.20888" fill="#F3F3F3"/>
</g>
<defs>
<clipPath id="clip0">
<rect width="20" height="18" fill="white"/>
</clipPath>
</defs>
</svg>
