<svg width="20" height="18" viewBox="0 0 20 18" fill="none" xmlns="http://www.w3.org/2000/svg">
<g clip-path="url(#clip0)">
<path d="M9.9375 0.0488281L10.4713 0.951078C10.5913 1.11758 10.7213 1.26495 10.8744 1.4022C11.3213 1.80439 11.7456 2.2257 12.1269 2.67683C13.0313 3.74558 13.6413 4.93245 14.0769 6.21608C14.3381 7.0002 14.48 7.80458 14.4906 8.61795C14.5344 11.0496 13.6081 13.1376 11.7406 14.873C11.4356 15.1475 11.1094 15.4017 10.7594 15.6278C10.5744 15.6278 10.4869 15.5001 10.4106 15.3826C10.2688 15.1671 10.1819 14.9213 10.1381 14.6766C10.0725 14.3825 10.0294 14.0883 10.0506 13.7845V13.6473C10.0356 13.618 9.8725 0.118016 9.9375 0.0488281Z" fill="#D9D9D9"/>
<path d="M9.93748 0.0186193C9.91561 -0.0207557 9.89373 0.00905677 9.87186 0.0281818C9.88248 0.225057 9.80623 0.400557 9.68685 0.568182C9.5556 0.734682 9.38186 0.862369 9.20748 0.999619C8.23873 1.75449 7.47623 2.66631 6.8656 3.68612C6.0531 5.05862 5.63435 6.52956 5.5156 8.07812C5.46123 8.63668 5.71185 10.6077 5.90748 11.1764C6.44123 12.6861 7.39998 13.9512 8.64186 15.0492C8.94685 15.3136 9.27311 15.5588 9.61061 15.7945C9.70873 15.7945 9.71936 15.7157 9.74186 15.6572C9.78488 15.5321 9.81767 15.4042 9.83998 15.2747L10.0587 13.8044L9.93748 0.0186193Z" fill="white"/>
<path d="M10.4713 16.2253C10.4931 16.0003 10.6131 15.8135 10.7438 15.6273C10.6125 15.5784 10.515 15.4811 10.4388 15.3725C10.3731 15.2747 10.3188 15.1571 10.2763 15.0491C10.1238 14.6373 10.0913 14.2053 10.0475 13.7846V13.5298C9.99313 13.5692 9.98188 13.9022 9.98188 13.9517C9.95007 14.3964 9.8845 14.8386 9.78563 15.2752C9.75313 15.4518 9.73125 15.6279 9.61063 15.7848C9.61063 15.8045 9.61063 15.8242 9.62125 15.8535C9.8175 16.3732 9.87125 16.9025 9.90438 17.442V17.6389C9.90438 17.874 9.89375 17.8245 10.1106 17.9032C10.1981 17.9325 10.2956 17.9426 10.3831 18.0011C10.4488 18.0011 10.4594 17.9522 10.4594 17.9128L10.4269 17.5894V16.6871C10.4163 16.5296 10.4488 16.3732 10.4706 16.2259L10.4713 16.2253Z" fill="#BCBCBC"/>
</g>
<defs>
<clipPath id="clip0">
<rect width="20" height="18" fill="white"/>
</clipPath>
</defs>
</svg>
