<svg width="20" height="18" viewBox="0 0 20 18" fill="none" xmlns="http://www.w3.org/2000/svg">
<path d="M10 17.8593C9.70089 17.8593 9.39732 17.796 9.13393 17.6765L6.37946 16.3933C5.96875 16.2105 6.16964 16.1472 6.30357 16.1121C6.85268 15.9609 6.96429 15.9292 7.54911 15.6656C7.61161 15.6375 7.69196 15.648 7.75446 15.6796L9.87054 16.6675C9.94643 16.7027 10.0536 16.7027 10.125 16.6675L18.3705 12.9199C18.4464 12.8847 18.4955 12.8144 18.4955 12.7441V5.24878C18.4955 5.17495 18.4464 5.10815 18.3661 5.06948L10.125 1.32534C10.0491 1.29019 9.94643 1.29019 9.87054 1.32534L1.63393 5.073C1.55357 5.10815 1.50446 5.17847 1.50446 5.25229V12.7441C1.50446 12.8144 1.55357 12.8847 1.63393 12.9164L3.89286 13.9429C5.12054 14.4246 5.87054 13.8585 5.87054 13.2855V5.88862C5.87054 5.78315 5.97768 5.70229 6.11161 5.70229H7.15625C7.28571 5.70229 7.39732 5.78315 7.39732 5.88862V13.289C7.39732 14.5757 6.50446 15.314 4.95536 15.314C4.47768 15.314 4.10268 15.314 3.05804 14.9062L0.897321 13.9253C0.361607 13.6828 0.03125 13.2292 0.03125 12.7406V5.24878C0.03125 4.76362 0.361607 4.30659 0.897321 4.06401L9.13393 0.316357C9.65625 0.0843262 10.3482 0.0843262 10.8661 0.316357L19.1116 4.06753C19.6473 4.31011 19.9777 4.76362 19.9777 5.25229V12.7441C19.9777 13.2292 19.6473 13.6828 19.1116 13.9289L10.8661 17.6765C10.6027 17.796 10.3036 17.8593 10 17.8593ZM16.6562 10.473C16.6562 9.07026 15.4509 8.69761 12.9196 8.43394C10.3571 8.16675 10.0982 8.02964 10.0982 7.55854C10.0982 7.16831 10.317 6.648 12.2143 6.648C13.9062 6.648 14.5312 6.93628 14.7902 7.83628C14.8125 7.92065 14.9107 7.98394 15.0223 7.98394H16.0938C16.1607 7.98394 16.2232 7.96284 16.2679 7.92417C16.3125 7.8855 16.3348 7.83276 16.3304 7.78003C16.1652 6.22964 14.8571 5.50894 12.2143 5.50894C9.86161 5.50894 8.45982 6.2894 8.45982 7.60073C8.45982 9.02104 9.85714 9.41479 12.1116 9.59058C14.8125 9.798 15.0223 10.1109 15.0223 10.5292C15.0223 11.2535 14.2812 11.5628 12.5446 11.5628C10.3616 11.5628 9.88393 11.1304 9.72322 10.2761C9.70536 10.1847 9.60714 10.1179 9.48661 10.1179H8.41964C8.28572 10.1179 8.18304 10.2023 8.18304 10.3042C8.18304 11.3976 8.9375 12.7019 12.5491 12.7019C15.1562 12.6984 16.6562 11.8863 16.6562 10.473Z" fill="#F3F3F3"/>
</svg>
