<svg width="20" height="18" viewBox="0 0 20 18" fill="none" xmlns="http://www.w3.org/2000/svg">
<g clip-path="url(#clip0)">
<path d="M0.833313 0.770752H19.1666V17.2288H0.833313V0.770752Z" fill="url(#paint0_radial)"/>
<path d="M0.833354 0.771022H19.1667V17.2293H0.833354V0.771022ZM3.05176e-05 17.9984H20.0001V0.00195312H3.05176e-05V17.9984ZM13.4834 7.38512C12.825 7.38512 12.6001 7.69274 12.6001 7.94653C12.6001 8.22339 12.7501 8.41567 13.6334 8.83867C14.9417 9.42318 15.3501 9.9846 15.3501 10.8075C15.3501 12.038 14.3334 12.6995 12.9584 12.6995C12.2334 12.6995 11.6084 12.561 11.25 12.3688C11.1917 12.3457 11.1834 12.3072 11.1834 12.2457V11.1151C11.1834 11.0382 11.2251 11.0152 11.2834 11.0536C11.8084 11.369 12.4084 11.5074 12.9584 11.5074C13.6167 11.5074 13.8917 11.2536 13.8917 10.9075C13.8917 10.6306 13.7001 10.3845 12.8584 9.9846C11.675 9.46163 11.1834 8.93098 11.1834 8.04653C11.1834 7.0544 12.0251 6.2315 13.4834 6.2315C14.2001 6.2315 14.7001 6.3315 14.9751 6.44684C15.0417 6.48529 15.0584 6.54681 15.0584 6.60064V7.65426C15.0584 7.71578 15.0167 7.75426 14.9334 7.73116C14.5667 7.51587 14.0251 7.38512 13.4834 7.38512ZM6.3167 8.30032C6.50837 8.3157 6.65839 8.3157 6.99171 8.3157C7.96675 8.3157 8.88339 8.00039 8.88339 6.77756C8.88339 5.80084 8.22505 5.3086 7.11673 5.3086C6.7834 5.3086 6.46671 5.32398 6.3167 5.33167V8.30032ZM4.83339 4.2165C4.83339 4.16267 4.95008 4.12419 5.0167 4.12419C5.55007 4.10112 6.34173 4.08574 7.16672 4.08574C9.47505 4.08574 10.375 5.25474 10.375 6.74677C10.375 8.70022 8.8417 9.53853 6.95838 9.53853C6.64172 9.53853 6.5334 9.52315 6.30837 9.52315V12.4764C6.30837 12.5379 6.28337 12.5687 6.20838 12.5687H4.93338C4.86672 12.5687 4.83336 12.5456 4.83336 12.4764V4.2165H4.83339Z" fill="#F3F3F3"/>
</g>
<defs>
<radialGradient id="paint0_radial" cx="0" cy="0" r="1" gradientUnits="userSpaceOnUse" gradientTransform="translate(6.87142 4.45902) scale(13.9333 12.4497)">
<stop stop-color="#932442"/>
<stop offset="1" stop-color="#932432"/>
</radialGradient>
<clipPath id="clip0">
<rect width="20" height="18" fill="white"/>
</clipPath>
</defs>
</svg>
