<svg width="20" height="18" viewBox="0 0 20 18" fill="none" xmlns="http://www.w3.org/2000/svg">
<path d="M16.3359 5.83311C16.125 5.7608 15.9141 5.6925 15.7031 5.62821C15.7383 5.47956 15.7695 5.33091 15.8008 5.18226C16.2812 2.78774 15.9648 0.863291 14.8984 0.228503C13.8711 -0.378161 12.1953 0.252609 10.5 1.77128C10.332 1.91993 10.168 2.07662 10.0117 2.23331C9.90625 2.12885 9.79688 2.02439 9.6875 1.92395C7.91016 0.300821 6.12891 -0.382178 5.0625 0.256627C4.03906 0.867308 3.73438 2.67927 4.16406 4.94522C4.20703 5.1702 4.25391 5.39117 4.30859 5.61616C4.05859 5.68848 3.8125 5.76883 3.58203 5.8532C1.49609 6.59647 0 7.76962 0 8.98295C0 10.2365 1.59375 11.494 3.76172 12.2573C3.9375 12.3176 4.11328 12.3779 4.29297 12.4301C4.23438 12.6711 4.18359 12.9082 4.13672 13.1533C3.72656 15.383 4.04688 17.1508 5.07031 17.7575C6.125 18.3842 7.89844 17.7414 9.625 16.1866C9.76172 16.062 9.89844 15.9335 10.0352 15.7969C10.207 15.9696 10.3867 16.1343 10.5664 16.2951C12.2383 17.7735 13.8906 18.3722 14.9102 17.7655C15.9648 17.1388 16.3086 15.2384 15.8633 12.9243C15.8281 12.7475 15.7891 12.5667 15.7461 12.3819C15.8711 12.3457 15.9922 12.3055 16.1133 12.2654C18.3672 11.498 20 10.2565 20 8.98295C20 7.7656 18.4609 6.58441 16.3359 5.83311ZM11.0508 2.42214C12.5039 1.12042 13.8594 0.610179 14.4766 0.975785C15.1367 1.3655 15.3906 2.94041 14.9766 5.0095C14.9492 5.1461 14.9219 5.27868 14.8867 5.41126C14.0195 5.21038 13.1406 5.06574 12.2578 4.98539C11.75 4.23811 11.1953 3.52297 10.5938 2.85202C10.7461 2.70337 10.8945 2.56275 11.0508 2.42214ZM6.53125 11.0681C6.73047 11.4176 6.93359 11.7672 7.14844 12.1087C6.53906 12.0404 5.93359 11.9399 5.33594 11.8073C5.50781 11.2288 5.72266 10.6302 5.97266 10.0195C6.15234 10.373 6.33594 10.7226 6.53125 11.0681ZM5.34766 6.23488C5.91016 6.10631 6.50781 6.00185 7.12891 5.9215C6.92188 6.25497 6.71875 6.59647 6.52734 6.94198C6.33594 7.28348 6.14844 7.63302 5.97266 7.98657C5.72656 7.38794 5.51953 6.80137 5.34766 6.23488ZM6.41797 9.00303C6.67578 8.4486 6.95703 7.90622 7.25391 7.37187C7.55078 6.83752 7.87109 6.31925 8.20703 5.80901C8.79297 5.76481 9.39062 5.74071 10 5.74071C10.6094 5.74071 11.2109 5.76481 11.793 5.80901C12.125 6.31523 12.4414 6.83351 12.7422 7.36384C13.043 7.89417 13.3242 8.43655 13.5898 8.98696C13.3281 9.5414 13.0469 10.0878 12.7461 10.6262C12.4492 11.1605 12.1328 11.6788 11.8008 12.193C11.2188 12.2372 10.6133 12.2573 10 12.2573C9.38672 12.2573 8.79297 12.2372 8.21875 12.2011C7.87891 11.6908 7.55859 11.1685 7.25781 10.6342C6.95703 10.0999 6.67969 9.55747 6.41797 9.00303ZM13.4727 11.0601C13.6719 10.7065 13.8594 10.3489 14.043 9.98736C14.293 10.5699 14.5117 11.1605 14.7031 11.7672C14.0977 11.9078 13.4844 12.0163 12.8672 12.0886C13.0781 11.7511 13.2773 11.4056 13.4727 11.0601ZM14.0352 7.98657C13.8516 7.63302 13.6641 7.27947 13.4688 6.93395C13.2773 6.59245 13.0781 6.25497 12.8711 5.9215C13.5 6.00185 14.1016 6.11033 14.6641 6.24291C14.4844 6.83752 14.2734 7.41607 14.0352 7.98657ZM10.0078 3.46672C10.418 3.92473 10.8047 4.40685 11.1641 4.90504C10.3906 4.86888 9.61328 4.86888 8.83984 4.90504C9.22266 4.38676 9.61719 3.90465 10.0078 3.46672ZM5.47656 1.00391C6.13281 0.610179 7.58984 1.17265 9.125 2.57079C9.22266 2.65918 9.32031 2.7556 9.42188 2.85202C8.81641 3.52297 8.25781 4.23811 7.74609 4.98539C6.86328 5.06574 5.98828 5.20636 5.12109 5.40323C5.07031 5.19833 5.02734 4.98941 4.98438 4.78049C4.61719 2.83595 4.85938 1.36951 5.47656 1.00391ZM4.51953 11.5944C4.35547 11.5462 4.19531 11.494 4.03516 11.4377C3.20313 11.1685 2.25781 10.7427 1.57422 10.1842C1.17969 9.90299 0.914062 9.46908 0.839844 8.98295C0.839844 8.24772 2.07422 7.30759 3.85547 6.66878C4.07812 6.58843 4.30469 6.51611 4.53125 6.44781C4.79688 7.31964 5.11719 8.1754 5.48828 9.00303C5.11328 9.84272 4.78906 10.7105 4.51953 11.5944ZM9.07422 15.5317C8.42969 16.1384 7.68359 16.6205 6.87109 16.9499C6.4375 17.1629 5.9375 17.183 5.49219 17.0022C4.87109 16.6325 4.61328 15.2143 4.96484 13.3059C5.00781 13.0809 5.05469 12.856 5.10938 12.635C5.98438 12.8278 6.86719 12.9604 7.76172 13.0287C8.27734 13.78 8.84375 14.4992 9.44922 15.1741C9.32422 15.2987 9.19922 15.4192 9.07422 15.5317ZM10.0312 14.5554C9.63281 14.1135 9.23438 13.6233 8.84766 13.097C9.22266 13.1131 9.60938 13.1211 10 13.1211C10.4023 13.1211 10.7969 13.1131 11.1875 13.093C10.8281 13.6032 10.4414 14.0894 10.0312 14.5554ZM15.1367 15.7607C15.1016 16.2509 14.8672 16.7089 14.4922 17.0182C13.8711 17.3879 12.5469 16.9057 11.1172 15.6442C10.9531 15.4996 10.7891 15.3429 10.6211 15.1822C11.2188 14.5032 11.7695 13.784 12.2695 13.0287C13.1641 12.9524 14.0547 12.8118 14.9336 12.6069C14.9727 12.7716 15.0078 12.9363 15.0391 13.097C15.2305 13.9648 15.2617 14.8688 15.1367 15.7607ZM15.8477 11.4417C15.7383 11.4779 15.6289 11.5141 15.5156 11.5462C15.2422 10.6704 14.9062 9.8146 14.5195 8.98295C14.8945 8.16335 15.2109 7.31964 15.4766 6.45585C15.6797 6.51611 15.875 6.5804 16.0625 6.64468C17.8828 7.2875 19.1602 8.2437 19.1602 8.97491C19.1602 9.76237 17.7969 10.7788 15.8477 11.4417ZM10 10.8391C10.9883 10.8391 11.7891 10.0155 11.7891 8.99902C11.7891 7.98255 10.9883 7.15894 10 7.15894C9.01172 7.15894 8.21094 7.98255 8.21094 8.99902C8.21094 10.0155 9.01172 10.8391 10 10.8391Z" fill="#F3F3F3"/>
</svg>
